<?xml version="1.0" encoding="UTF-8"?>
<svg xmlns="http://www.w3.org/2000/svg" viewBox="0 0 1600 520" role="img" aria-labelledby="title desc">
  <title id="title">Mohammed Muayad — AI Engineering Student</title>
  <desc id="desc">Animated luxury AI banner with maroon, violet, and cyan glows, a professional neural network mesh, and flowing waves.</desc>

  <defs>
    <linearGradient id="bg" x1="0%" y1="0%" x2="100%" y2="100%">
      <stop offset="0%" stop-color="#07040f"/>
      <stop offset="28%" stop-color="#17102c"/>
      <stop offset="62%" stop-color="#0b2948"/>
      <stop offset="100%" stop-color="#56162f"/>
    </linearGradient>

    <linearGradient id="neon" x1="0%" y1="0%" x2="100%" y2="0%">
      <stop offset="0%" stop-color="#8b5cf6"/>
      <stop offset="48%" stop-color="#22d3ee"/>
      <stop offset="100%" stop-color="#d14f7b"/>
    </linearGradient>

    <linearGradient id="neuralLeft" x1="0%" y1="0%" x2="100%" y2="100%">
      <stop offset="0%" stop-color="#8b5cf6"/>
      <stop offset="100%" stop-color="#22d3ee"/>
    </linearGradient>

    <linearGradient id="neuralRight" x1="100%" y1="0%" x2="0%" y2="100%">
      <stop offset="0%" stop-color="#e05a87"/>
      <stop offset="100%" stop-color="#22d3ee"/>
    </linearGradient>

    <linearGradient id="waveA" x1="0%" y1="0%" x2="100%" y2="0%">
      <stop offset="0%" stop-color="#8b5cf6" stop-opacity="0"/>
      <stop offset="44%" stop-color="#8b5cf6" stop-opacity="0.55"/>
      <stop offset="100%" stop-color="#22d3ee" stop-opacity="0"/>
    </linearGradient>

    <linearGradient id="waveB" x1="100%" y1="0%" x2="0%" y2="0%">
      <stop offset="0%" stop-color="#d14f7b" stop-opacity="0"/>
      <stop offset="45%" stop-color="#d14f7b" stop-opacity="0.62"/>
      <stop offset="100%" stop-color="#22d3ee" stop-opacity="0"/>
    </linearGradient>

    <radialGradient id="purpleGlow" cx="50%" cy="50%" r="50%">
      <stop offset="0%" stop-color="#8b5cf6" stop-opacity="0.76"/>
      <stop offset="100%" stop-color="#8b5cf6" stop-opacity="0"/>
    </radialGradient>

    <radialGradient id="cyanGlow" cx="50%" cy="50%" r="50%">
      <stop offset="0%" stop-color="#22d3ee" stop-opacity="0.56"/>
      <stop offset="100%" stop-color="#22d3ee" stop-opacity="0"/>
    </radialGradient>

    <radialGradient id="maroonGlow" cx="50%" cy="50%" r="50%">
      <stop offset="0%" stop-color="#d14f7b" stop-opacity="0.86"/>
      <stop offset="55%" stop-color="#8b1e3f" stop-opacity="0.42"/>
      <stop offset="100%" stop-color="#8b1e3f" stop-opacity="0"/>
    </radialGradient>

    <pattern id="grid" width="48" height="48" patternUnits="userSpaceOnUse">
      <path d="M48 0H0V48" fill="none" stroke="#ffffff" stroke-opacity="0.03" stroke-width="1"/>
    </pattern>

    <filter id="blur" x="-30%" y="-30%" width="160%" height="160%">
      <feGaussianBlur stdDeviation="32"/>
    </filter>

    <filter id="glow" x="-60%" y="-60%" width="220%" height="220%">
      <feGaussianBlur stdDeviation="4" result="blur"/>
      <feMerge>
        <feMergeNode in="blur"/>
        <feMergeNode in="SourceGraphic"/>
      </feMerge>
    </filter>

    <filter id="softGlow" x="-60%" y="-60%" width="220%" height="220%">
      <feGaussianBlur stdDeviation="2.2" result="blur"/>
      <feMerge>
        <feMergeNode in="blur"/>
        <feMergeNode in="SourceGraphic"/>
      </feMerge>
    </filter>
  </defs>

  <rect width="1600" height="520" rx="30" fill="url(#bg)"/>
  <rect width="1600" height="520" rx="30" fill="url(#grid)"/>

  <ellipse cx="430" cy="155" rx="430" ry="190" fill="url(#purpleGlow)" filter="url(#blur)">
    <animate attributeName="cx" values="390;490;390" dur="12s" repeatCount="indefinite"/>
  </ellipse>

  <ellipse cx="930" cy="285" rx="350" ry="155" fill="url(#cyanGlow)" filter="url(#blur)">
    <animate attributeName="cy" values="255;315;255" dur="11s" repeatCount="indefinite"/>
  </ellipse>

  <ellipse cx="1335" cy="255" rx="360" ry="210" fill="url(#maroonGlow)" filter="url(#blur)">
    <animate attributeName="rx" values="330;395;330" dur="9.5s" repeatCount="indefinite"/>
    <animate attributeName="cy" values="235;285;235" dur="12.5s" repeatCount="indefinite"/>
  </ellipse>

  <g opacity="0.78" fill="none" stroke-linecap="round" stroke-linejoin="round" filter="url(#softGlow)">
    <g stroke="url(#neuralLeft)" stroke-width="1.7">
      <path d="M85 115 L205 68 L330 125 L445 78 L560 145"/>
      <path d="M85 115 L150 225 L330 125 L365 255 L560 145"/>
      <path d="M150 225 L275 335 L365 255 L500 345"/>
      <path d="M205 68 L275 170 L445 78 L500 210"/>
      <path d="M275 170 L330 125 L365 255 L500 210"/>
      <path d="M275 335 L365 255 L500 345 L615 300"/>
    </g>

    <g stroke="url(#neuralRight)" stroke-width="1.8">
      <path d="M1045 145 L1170 72 L1288 132 L1410 82 L1520 145"/>
      <path d="M1045 145 L1105 255 L1288 132 L1328 270 L1520 145"/>
      <path d="M1105 255 L1218 348 L1328 270 L1465 350"/>
      <path d="M1170 72 L1238 176 L1410 82 L1460 215"/>
      <path d="M1238 176 L1288 132 L1328 270 L1460 215"/>
      <path d="M1218 348 L1328 270 L1465 350 L1540 300"/>
    </g>
  </g>

  <g filter="url(#glow)">
    <g fill="#c4b5fd">
      <circle cx="85" cy="115" r="5"/>
      <circle cx="205" cy="68" r="5"/>
      <circle cx="330" cy="125" r="6"/>
      <circle cx="445" cy="78" r="5"/>
      <circle cx="560" cy="145" r="5"/>
      <circle cx="150" cy="225" r="5"/>
      <circle cx="275" cy="170" r="5"/>
      <circle cx="365" cy="255" r="6"/>
      <circle cx="500" cy="210" r="5"/>
      <circle cx="275" cy="335" r="5"/>
      <circle cx="500" cy="345" r="5"/>
      <circle cx="615" cy="300" r="5"/>
    </g>

    <g fill="#f29ab9">
      <circle cx="1045" cy="145" r="5"/>
      <circle cx="1170" cy="72" r="5"/>
      <circle cx="1288" cy="132" r="6"/>
      <circle cx="1410" cy="82" r="5"/>
      <circle cx="1520" cy="145" r="5"/>
      <circle cx="1105" cy="255" r="5"/>
      <circle cx="1238" cy="176" r="5"/>
      <circle cx="1328" cy="270" r="6"/>
      <circle cx="1460" cy="215" r="5"/>
      <circle cx="1218" cy="348" r="5"/>
      <circle cx="1465" cy="350" r="5"/>
      <circle cx="1540" cy="300" r="5"/>
    </g>
  </g>

  <g filter="url(#glow)">
    <circle cx="85" cy="115" r="5" fill="#c4b5fd"><animate attributeName="r" values="4;8;4" dur="3.4s" repeatCount="indefinite"/></circle>
    <circle cx="365" cy="255" r="6" fill="#67e8f9"><animate attributeName="opacity" values="0.35;1;0.35" dur="2.7s" repeatCount="indefinite"/></circle>
    <circle cx="1288" cy="132" r="6" fill="#f29ab9"><animate attributeName="r" values="5;9;5" dur="3.9s" repeatCount="indefinite"/></circle>
    <circle cx="1465" cy="350" r="5" fill="#f29ab9"><animate attributeName="opacity" values="0.4;1;0.4" dur="3.1s" repeatCount="indefinite"/></circle>
  </g>

  <g font-family="Segoe UI, Inter, Arial, sans-serif" text-anchor="middle">
    <text x="800" y="205" font-size="70" font-weight="750" fill="#ffffff" letter-spacing="1">Mohammed Muayad</text>
    <text x="800" y="263" font-size="30" font-weight="600" fill="#dedaff" letter-spacing="2">AI Engineering Student</text>
    <rect x="492" y="297" width="616" height="2" fill="url(#neon)" opacity="0.95">
      <animate attributeName="opacity" values="0.38;1;0.38" dur="3s" repeatCount="indefinite"/>
    </rect>
    <text x="800" y="350" font-size="28" font-weight="500" fill="#f8fafc">Building the Future with Code &amp; Intelligence</text>
  </g>

  <path d="M0 430 C250 375 430 500 690 445 S1110 365 1600 455 V520 H0 Z" fill="url(#waveA)" opacity="0.62">
    <animate attributeName="d" dur="10s" repeatCount="indefinite"
      values="M0 430 C250 375 430 500 690 445 S1110 365 1600 455 V520 H0 Z;
              M0 455 C260 505 460 380 710 450 S1130 505 1600 420 V520 H0 Z;
              M0 430 C250 375 430 500 690 445 S1110 365 1600 455 V520 H0 Z"/>
  </path>

  <path d="M0 470 C285 420 500 510 770 468 S1260 410 1600 475 V520 H0 Z" fill="url(#waveB)" opacity="0.82">
    <animate attributeName="d" dur="13s" repeatCount="indefinite"
      values="M0 470 C285 420 500 510 770 468 S1260 410 1600 475 V520 H0 Z;
              M0 450 C320 505 530 420 820 470 S1270 515 1600 450 V520 H0 Z;
              M0 470 C285 420 500 510 770 468 S1260 410 1600 475 V520 H0 Z"/>
  </path>
</svg>
